# AST/ASF file generated using VICON BodyLanguage
# -----------------------------------------------
:version 1.10
:name VICON
:units
  mass 1.0
  length 0.45
  angle deg
:documentation
   .ast/.asf automatically generated from VICON data using
   VICON BodyBuilder and BodyLanguage model FoxedUp or BRILLIANT.MOD
:root
   order TX TY TZ RX RY RZ
   axis XYZ
   position 0 0 0  
   orientation 0 0 0 
:bonedata
  begin
     id 1 
     name lhipjoint
     direction 0.734343 -0.627749 0.258209 
     length 2.5437 
     axis 0 0 0  XYZ
  end
  begin
     id 2 
     name lfemur
     direction 0.34202 -0.939693 0  
     length 6.7391  
     axis 0 0 20  XYZ
    dof rx ry rz
    limits (-160.0 20.0)
           (-70.0 70.0)
           (-60.0 70.0)
  end
  begin
     id 3 
     name ltibia
     direction 0.34202 -0.939693 0   
     length 7.21536   
     axis 0 0 20   XYZ
    dof rx
    limits (-10.0 170.0)
  end
  begin
     id 4 
     name lfoot
     direction 0.0489572 -0.134509 0.989702   
     length 1.61313   
     axis -90 7.62852e-016 20   XYZ
    dof rx rz
    limits (-45.0 90.0)
           (-70.0 20.0)
  end
  begin
     id 5 
     name ltoes
     direction 1.53451e-011 -4.21692e-011 1   
     length 0.823104   
     axis -90 7.62852e-016 20   XYZ
    dof rx
    limits (-90.0 20.0)
  end
  begin
     id 6 
     name rhipjoint
     direction -0.746398 -0.615468 0.253157   
     length 2.59446  
     axis 0 0 0  XYZ 
  end
  begin
     id 7 
     name rfemur
     direction -0.34202 -0.939693 0   
     length 6.7075   
     axis 0 0 -20   XYZ
    dof rx ry rz
    limits (-160.0 20.0)
           (-70.0 70.0)
           (-70.0 60.0)
  end
  begin
     id 8 
     name rtibia
     direction -0.34202 -0.939693 0   
     length 7.27262   
     axis 0 0 -20   XYZ
    dof rx
    limits (-10.0 170.0)
 end
 begin
     id 9 
     name rfoot
     direction -0.0455203 -0.125066 0.991104   
     length 1.91095  
     axis -90 -7.62852e-016 -20   XYZ
    dof rx rz
    limits (-45.0 90.0)
           (-20.0 70.0)
  end
  begin
     id 10 
     name rtoes
     direction -1.53601e-011 -4.21913e-011 1   
     length 0.969037   
     axis -90 -7.62852e-016 -20   XYZ
    dof rx
    limits (-90.0 20.0)
  end
  begin
     id 11 
     name lowerback
     direction 0.0181546 0.999122 -0.0377542   
     length 1.99916   
     axis 0 0 0   XYZ
    dof rx ry rz
    limits (-20.0 45.0)
           (-30.0 30.0)
           (-30.0 30.0)
  end
  begin
     id 12 
     name upperback
     direction 0.0203486 0.99589 0.0882534   
     length 1.951   
     axis 0 0 0   XYZ
    dof rx ry rz
    limits (-20.0 45.0)
           (-30.0 30.0)
           (-30.0 30.0)
  end
  begin
     id 13 
     name thorax
     direction 0.0131685 0.994241 0.106355   
     length 1.97461   
     axis 0 0 0   XYZ
    dof rx ry rz
    limits (-20.0 45.0)
           (-30.0 30.0)
           (-30.0 30.0)
  end
  begin
     id 14 
     name lowerneck
     direction -0.0281395 0.999325 0.023617   
     length 1.7959   
     axis 0 0 0   XYZ
    dof rx ry rz
    limits (-20.0 45.0)
           (-30.0 30.0)
           (-30.0 30.0)
  end
  begin
     id 15 
     name upperneck
     direction 0.0288721 0.991984 -0.123019   
     length 1.79917   
     axis 0 0 0   XYZ
    dof rx ry rz
    limits (-20.0 45.0)
           (-30.0 30.0)
           (-30.0 30.0)
  end
  begin
     id 16
     name head
     direction 0.0133797 0.998944 -0.0439492  
     length 1.80902  
     axis 0 0 0   XYZ
    dof rx ry rz
    limits (-20.0 45.0)
           (-30.0 30.0)
           (-30.0 30.0)
  end
  begin
     id 17 
     name lclavicle
     direction 0.919195 0.377107 0.113449  
     length 3.17815  
     axis 0 0 0   XYZ
    dof ry rz
    limits (-20.0 10.0)
           (0.0 20.0)
  end
  begin
     id 18 
     name lhumerus
     direction 1 -4.48959e-011 2.13129e-027   
     length 4.84137   
     axis 180 -30 -90   XYZ
    dof rx ry rz
    limits (-60.0 90.0)
           (-90.0 90.0)
           (-90.0 90.0)
  end
  begin
     id 19
     name lradius
     direction 1 -4.48957e-011 -6.30627e-028   
     length 3.2452   
     axis 180 -30 -90   XYZ
    dof rx
    limits (-10.0 170.0)
  end
  begin
     id 20
     name lwrist
     direction 1 -4.4901e-011 9.13299e-027   
     length 1.6226   
     axis -6.84618e-015 90 90   XYZ
    dof ry
    limits (-180.0 0.0)
 end
  begin
     id 21 
     name lhand
     direction 1 -4.48816e-011 1.82293e-026   
     length 0.521221   
     axis -1.16502e-014 90 90   XYZ
    dof rx rz
    limits (-90.0 90.0)
           (-45.0 45.0)
  end
  begin
     id 22 
     name lfingers
     direction 1 -4.49108e-011 3.65687e-026   
     length 0.420221   
     axis -2.33008e-014 90 90   XYZ
    dof rx
    limits (0.0 90.0)
  end
  begin
     id 23
     name lthumb
     direction 0.707107 -6.34943e-011 0.707107   
     length 0.603356   
     axis -90 45 5.69224e-014   XYZ
    dof rx rz
    limits (-45.0 45.0)
           (-45.0 45.0)
  end
  begin
     id 24 
     name rclavicle
     direction -0.90847 0.38596 0.160368   
     length 3.12973  
     axis 0 0 0   XYZ 
    dof ry rz
    limits (-10.0 20.0)
           (-20.0 0.0)
  end
  begin
     id 25 
     name rhumerus
     direction -1 -4.48974e-011 4.47268e-028  
     length 4.72284   
     axis 180 30 90   XYZ
    dof rx ry rz
    limits (-90.0 60.0)
           (-90.0 90.0)
           (-90.0 90.0)
  end
  begin
     id 26 
     name rradius
     direction -1 -4.48969e-011 3.43203e-027   
     length 3.23459   
     axis 180 30 90   XYZ
    dof rx
    limits (-10.0 170.0)
  end
  begin
     id 27 
     name rwrist
     direction -1 -4.48969e-011 9.12911e-027   
     length 1.6173   
     axis -6.84618e-015 -90 -90   XYZ
    dof ry
    limits (-180.0 0.0)
  end
  begin
     id 28
     name rhand
     direction -1 -4.49194e-011 1.83006e-026   
     length 0.307416   
     axis -1.16502e-014 -90 -90   XYZ
    dof rx rz
    limits (-90.0 90.0)
           (-45.0 45.0)
  end
  begin
     id 29
     name rfingers
     direction -1 -4.48423e-011 3.63103e-026   
     length 0.247847   
     axis -2.33008e-014 -90 -90   XYZ
    dof rx
    limits (0.0 90.0)
  end
  begin
     id 30
     name rthumb
     direction -0.707107 -6.34802e-011 0.707107   
     length 0.35586   
     axis -90 -45 -5.69224e-014   XYZ
    dof rx rz
    limits (-45.0 45.0)
           (-45.0 45.0)
  end
:hierarchy
  begin
    root lhipjoint rhipjoint lowerback
    lhipjoint lfemur
    lfemur ltibia
    ltibia lfoot
    lfoot ltoes
    rhipjoint rfemur
    rfemur rtibia
    rtibia rfoot
    rfoot rtoes
    lowerback upperback
    upperback thorax
    thorax lowerneck lclavicle rclavicle
    lowerneck upperneck
    upperneck head
    lclavicle lhumerus
    lhumerus lradius
    lradius lwrist
    lwrist lhand lthumb
    lhand lfingers
    rclavicle rhumerus
    rhumerus rradius
    rradius rwrist
    rwrist rhand rthumb
    rhand rfingers
  end

#!OML:ASF H:\Terrain\Patient Classification 1\Animal1\Tuesday\Animal1.ASF
:FULLY-SPECIFIED
:DEGREES
301
root 5.86317 16.0743 -9.44572 10.2892 -8.52173 1.50684
lowerback 8.29017 -3.39733 0.0102574
upperback 5.06687 -4.5089 3.33761
thorax 0.88652 -2.31464 3.7676
lowerneck 8.81738 -16.8738 -10.6702
upperneck -24.0959 -20.7444 24.4775
head -4.59383 -11.8001 10.3027
rclavicle 1.51076e-014 7.15625e-015
rhumerus 16.158 19.1266 17.6754
rradius 37.288
rwrist -43.8629
rhand 3.32586 19.4013
rfingers 7.12502
rthumb 28.7719 -8.4015
lclavicle 1.51076e-014 7.15625e-015
lhumerus -13.5338 -34.4553 7.63009
lradius 39.2371
lwrist 7.45387
lhand 20.2984 48.9803
lfingers 7.12502
lthumb 44.813 72.5532
rfemur -30.3231 3.57094 17.716
rtibia 41.319
rfoot -13.9551 -22.4887
rtoes -4.25862
lfemur -28.0663 2.64139 -9.74362
ltibia 33.7125
lfoot -13.4115 7.7546
ltoes -14.2977
302
root 5.85947 16.0594 -9.45743 10.2171 -8.68733 1.36133
lowerback 8.37392 -3.48995 0.0563277
upperback 5.15413 -4.63023 3.4182
thorax 0.943199 -2.37767 3.8362
lowerneck 9.12429 -16.5769 -11.093
upperneck -24.027 -20.4154 24.5617
head -4.61977 -11.6256 10.4359
rclavicle -5.24792e-014 4.77083e-015
rhumerus 16.2806 19.4183 17.801
rradius 37.5697
rwrist -44.3115
rhand 3.94746 20.0014
rfingers 7.12502
rthumb 29.3655 -7.69886
lclavicle -5.24792e-014 4.77083e-015
lhumerus -13.4498 -35.1603 7.81244
lradius 39.2061
lwrist 7.51047
lhand 20.1839 48.6761
lfingers 7.12502
lthumb 44.7063 72.2904
rfemur -30.3103 3.57421 17.9141
rtibia 41.4104
rfoot -14.028 -22.3121
rtoes -4.40706
lfemur -28.0888 3.03984 -9.50161
ltibia 33.9304
lfoot -13.0597 7.1461
ltoes -13.8998
303
root 5.85639 16.0522 -9.47133 10.1789 -8.83382 1.26568
lowerback 8.34516 -3.58579 0.0810024
upperback 5.29468 -4.76197 3.48465
thorax 1.11863 -2.44783 3.8925
lowerneck 9.23647 -16.2735 -11.5538
upperneck -23.8205 -20.073 24.7253
head -4.55944 -11.441 10.5614
rclavicle 2.98177e-014 1.59028e-015
rhumerus 16.4363 19.8264 18.0439
rradius 37.8591
rwrist -44.9544
rhand 3.79082 20.1646
rfingers 7.12502
rthumb 29.216 -7.56182
lclavicle 2.98177e-014 1.59028e-015
lhumerus -13.3543 -35.8776 7.97764
lradius 39.2554
lwrist 7.63484
lhand 20.1603 48.5326
lfingers 7.12502
lthumb 44.6844 72.1554
rfemur -30.3875 3.54286 18.0748
rtibia 41.4841
rfoot -13.9889 -22.266
rtoes -4.07257
lfemur -28.1568 3.32458 -9.31508
ltibia 34.173
lfoot -12.7885 6.74805
ltoes -14.6767
304
root 5.85267 16.0564 -9.48133 10.1214 -9.003 1.38545
lowerback 8.22216 -3.62302 -0.110828
upperback 5.47667 -4.83376 3.46218
thorax 1.39521 -2.4935 3.96434
lowerneck 8.99937 -16.0754 -11.5048
upperneck -23.3451 -19.8541 24.4407
head -4.46157 -11.2904 10.4131
rclavicle 3.22031e-014 -1.51076e-014
rhumerus 16.3242 20.4015 18.3444
rradius 38.2654
rwrist -45.7351
rhand 3.99155 20.253
rfingers 7.12502
rthumb 29.4076 -7.43989
lclavicle 3.22031e-014 -1.51076e-014
lhumerus -13.0125 -36.6063 7.93312
lradius 39.5997
lwrist 8.08928
lhand 20.5573 48.7688
lfingers 7.12502
lthumb 45.0539 72.2471
rfemur -30.4824 3.50368 17.9843
rtibia 41.567
rfoot -13.9926 -22.236
rtoes -3.88444
lfemur -28.1661 3.52773 -9.37029
ltibia 34.3818
lfoot -12.9628 6.13669
ltoes -12.6328
305
root 5.85035 16.0584 -9.48876 10.0617 -9.12488 1.36829
lowerback 8.11794 -3.64935 -0.157363
upperback 5.66157 -4.88105 3.47421
thorax 1.65419 -2.52381 3.99057
lowerneck 8.82243 -15.8717 -11.4167
upperneck -22.8576 -19.6394 24.056
head -4.38722 -11.1361 10.2369
rclavicle -1.70955e-014 9.54166e-015
rhumerus 16.098 21.1793 18.7472
rradius 38.8342
rwrist -46.6534
rhand 4.4388 19.7877
rfingers 7.12502
rthumb 29.8345 -7.82944
lclavicle -1.70955e-014 9.54166e-015
lhumerus -12.5616 -37.6427 7.7436
lradius 40.2282
lwrist 9.03192
lhand 20.9423 49.2256
lfingers 7.12502
lthumb 45.4119 72.5611
rfemur -30.4974 3.51695 18.0166
rtibia 41.6878
rfoot -14.4589 -22.0669
rtoes -2.91332
lfemur -28.1771 3.74612 -9.26388
ltibia 34.5552
lfoot -13.1148 5.63282
ltoes -10.8791
306
root 5.84974 16.0555 -9.49828 10.0036 -9.18454 1.38309
lowerback 8.07931 -3.73704 -0.26348
upperback 5.80643 -5.01056 3.50541
thorax 1.84906 -2.59675 4.08071
lowerneck 8.71279 -15.5746 -11.7175
upperneck -22.2839 -19.3277 23.9711
head -4.22939 -10.9374 10.2061
rclavicle -3.97569e-015 -2.70347e-014
rhumerus 16.0732 21.7614 18.9772
rradius 39.288
rwrist -47.0704
rhand 4.96984 18.518
rfingers 7.12502
rthumb 30.3412 -9.00697
lclavicle -3.97569e-015 -2.70347e-014
lhumerus -12.345 -38.8678 7.63174
lradius 41.02
lwrist 10.0425
lhand 21.1163 49.2965
lfingers 7.12502
lthumb 45.5735 72.5666
rfemur -30.5592 3.4834 18.015
rtibia 41.818
rfoot -14.8395 -21.8326
rtoes -1.34457
lfemur -28.2685 3.98465 -9.20819
ltibia 34.7726
lfoot -13.0001 5.35411
ltoes -12.2119
